<?xml version="1.0" encoding="UTF-8" standalone="no"?>
<svg
   xmlns:dc="http://purl.org/dc/elements/1.1/"
   xmlns:cc="http://creativecommons.org/ns#"
   xmlns:rdf="http://www.w3.org/1999/02/22-rdf-syntax-ns#"
   xmlns:svg="http://www.w3.org/2000/svg"
   xmlns="http://www.w3.org/2000/svg"
   xmlns:sodipodi="http://sodipodi.sourceforge.net/DTD/sodipodi-0.dtd"
   xmlns:inkscape="http://www.inkscape.org/namespaces/inkscape"
   width="1080"
   height="2400"
   viewBox="0 0 285.74999 635.00002"
   version="1.1"
   id="svg8"
   inkscape:version="1.0.2 (e86c870879, 2021-01-15)"
   sodipodi:docname="permissiondenied-smartphone.svg"
   inkscape:export-filename="/mnt/tmpfs/permissiondenied-smartphone.png"
   inkscape:export-xdpi="96"
   inkscape:export-ydpi="96">
  <defs
     id="defs2" />
  <sodipodi:namedview
     id="base"
     pagecolor="#ffffff"
     bordercolor="#666666"
     borderopacity="1.0"
     inkscape:pageopacity="0.0"
     inkscape:pageshadow="2"
     inkscape:zoom="0.35"
     inkscape:cx="1292.3192"
     inkscape:cy="1433.4543"
     inkscape:document-units="mm"
     inkscape:current-layer="layer1"
     inkscape:document-rotation="0"
     showgrid="false"
     units="px" />
  <metadata
     id="metadata5">
    <rdf:RDF>
      <cc:Work
         rdf:about="">
        <dc:format>image/svg+xml</dc:format>
        <dc:type
           rdf:resource="http://purl.org/dc/dcmitype/StillImage" />
        <dc:title></dc:title>
      </cc:Work>
    </rdf:RDF>
  </metadata>
  <g
     inkscape:label="Layer 1"
     inkscape:groupmode="layer"
     id="layer1">
    <rect
       style="fill:#000000;stroke-width:1;stroke-linecap:square"
       id="rect833-7"
       width="285.75"
       height="635"
       x="463.3949"
       y="3.0307782" />
    <path
       style="fill:#ffe8f4;fill-opacity:1;fill-rule:evenodd;stroke:none;stroke-width:0.264583px;stroke-linecap:butt;stroke-linejoin:miter;stroke-opacity:1"
       d="M 494.91335,-3.1557985 C 513.60183,259.99455 757.0383,445.57686 760.97538,571.30713 591.65888,589.82761 567.9998,629.86611 435.27593,641.14223 l 9.8398,-643.9394246 z"
       id="path2317-6"
       sodipodi:nodetypes="ccccc" />
    <path
       d="m 523.10795,309.96047 q -23.20192,0 -34.99516,-12.69055 -11.66505,-12.56236 -11.66505,-35.12334 v -25.5093 h 91.52579 v 28.20123 q 0,13.84423 -5.12749,23.97103 -5.1275,10.12682 -15.12611,15.63887 -9.87044,5.51206 -24.61198,5.51206 z m -0.38458,-12.17781 q 18.33082,0 26.79118,-9.10129 8.58855,-8.97313 8.58855,-25.5093 v -14.99793 h -71.78494 v 12.43417 q 0,37.17435 36.40521,37.17435 z"
       style="font-style:normal;font-variant:normal;font-weight:normal;font-stretch:normal;font-size:123.302px;line-height:90%;font-family:'Noto Sans';-inkscape-font-specification:'Noto Sans';fill:#700000;fill-opacity:1;stroke-width:1;stroke-linecap:square"
       id="path2282-7" />
    <path
       d="m 537.45166,349.40069 q 0,7.70927 -3.35187,13.18398 -3.35186,5.58644 -9.49694,8.49139 -6.03335,3.01667 -14.18955,3.01667 h -5.92162 v -41.00445 q -10.16732,0.22346 -15.53031,5.13953 -5.25124,5.02779 -5.25124,13.96609 0,5.69817 1.00555,10.05559 1.11729,4.46914 3.12841,9.16175 h -8.60312 q -2.01111,-4.58087 -2.90494,-9.05003 -1.00556,-4.46914 -1.00556,-10.61422 0,-8.49139 3.46359,-15.08339 3.46359,-6.48027 10.27905,-10.16732 6.92718,-3.57532 16.87104,-3.57532 9.83213,0 16.87104,3.24014 7.03891,3.35186 10.83769,9.27349 3.79878,6.03334 3.79878,13.9661 z m -8.04447,-0.11175 q 0,-7.0389 -4.58089,-11.17287 -4.46914,-4.02223 -12.51361,-4.80433 v 30.50194 q 7.59755,-0.11172 12.29016,-3.57531 4.80434,-3.46359 4.80434,-10.94943 z"
       style="font-style:normal;font-variant:normal;font-weight:normal;font-stretch:normal;font-size:123.302px;line-height:90%;font-family:'Noto Sans';-inkscape-font-specification:'Noto Sans';fill:#700000;fill-opacity:1;stroke-width:1;stroke-linecap:square"
       id="path2284-4" />
    <path
       d="m 537.45166,418.11378 q 0,10.72596 -5.25125,16.20066 -5.13953,5.47472 -16.75931,5.47472 h -38.99334 v -9.72041 h 38.32295 q 14.41301,0 14.41301,-13.40744 0,-9.94387 -5.58643,-13.74265 -5.58644,-3.79877 -16.08895,-3.79877 h -31.06058 v -9.83213 h 59.88661 v 7.93274 l -8.1562,1.45247 v 0.55865 q 4.69261,2.90494 6.92719,8.04447 2.3463,5.13952 2.3463,10.83769 z"
       style="font-style:normal;font-variant:normal;font-weight:normal;font-stretch:normal;font-size:123.302px;line-height:90%;font-family:'Noto Sans';-inkscape-font-specification:'Noto Sans';fill:#700000;fill-opacity:1;stroke-width:1;stroke-linecap:square"
       id="path2286-4" />
    <path
       d="m 558.79185,463.36372 q 0,2.23458 -1.5642,3.91051 -1.45248,1.78766 -4.69261,1.78766 -3.12841,0 -4.69261,-1.78766 -1.5642,-1.67593 -1.5642,-3.91051 0,-2.45804 1.5642,-4.13397 1.5642,-1.67593 4.69261,-1.67593 3.24013,0 4.69261,1.67593 1.5642,1.67593 1.5642,4.13397 z m -22.45748,4.80433 h -59.88661 v -9.83212 h 59.88661 z"
       style="font-style:normal;font-variant:normal;font-weight:normal;font-stretch:normal;font-size:123.302px;line-height:90%;font-family:'Noto Sans';-inkscape-font-specification:'Noto Sans';fill:#700000;fill-opacity:1;stroke-width:1;stroke-linecap:square"
       id="path2288-3" />
    <path
       d="m 537.45166,510.28971 q 0,7.70929 -3.35187,13.18399 -3.35186,5.58645 -9.49694,8.49139 -6.03335,3.01667 -14.18955,3.01667 h -5.92162 v -41.00445 q -10.16732,0.22346 -15.53031,5.13953 -5.25124,5.0278 -5.25124,13.96609 0,5.69816 1.00555,10.05559 1.11729,4.46915 3.12841,9.16175 h -8.60312 q -2.01111,-4.58088 -2.90494,-9.05002 -1.00556,-4.46916 -1.00556,-10.61423 0,-8.49138 3.46359,-15.08338 3.46359,-6.48027 10.27905,-10.16732 6.92718,-3.57532 16.87104,-3.57532 9.83213,0 16.87104,3.24013 7.03891,3.35186 10.83769,9.27348 3.79878,6.03336 3.79878,13.9661 z m -8.04447,-0.11173 q 0,-7.03891 -4.58089,-11.17287 -4.46914,-4.02223 -12.51361,-4.80434 v 30.50196 q 7.59755,-0.11174 12.29016,-3.57534 4.80434,-3.46358 4.80434,-10.94941 z"
       style="font-style:normal;font-variant:normal;font-weight:normal;font-stretch:normal;font-size:123.302px;line-height:90%;font-family:'Noto Sans';-inkscape-font-specification:'Noto Sans';fill:#700000;fill-opacity:1;stroke-width:1;stroke-linecap:square"
       id="path2290-0" />
    <path
       d="m 475.33047,571.40526 q 0,-11.17288 7.70929,-17.8766 7.82101,-6.70373 23.23957,-6.70373 15.41857,0 23.23959,6.70373 7.93274,6.81544 7.93274,17.98832 0,6.92719 -2.56977,11.28461 -2.56976,4.46916 -6.25681,7.26237 v 0.67038 q 1.45248,-0.11174 4.2457,-0.44692 2.90494,-0.22346 4.58088,-0.22346 h 23.90995 v 9.83212 h -84.91385 v -7.93273 l 8.04447,-1.45248 v -0.44691 q -3.79878,-2.68149 -6.48027,-7.15064 -2.68149,-4.46915 -2.68149,-11.50806 z m 8.15619,1.5642 q 0,9.49694 5.13954,13.29572 5.25124,3.91051 15.75375,3.91051 h 1.78766 q 11.17287,0 17.0945,-3.68705 6.03335,-3.68705 6.03335,-13.6309 0,-7.93275 -6.36854,-11.95499 -6.25681,-3.9105 -16.87104,-3.9105 -10.72596,0 -16.64758,3.9105 -5.92164,4.02224 -5.92164,12.06671 z"
       style="font-style:normal;font-variant:normal;font-weight:normal;font-stretch:normal;font-size:123.302px;line-height:90%;font-family:'Noto Sans';-inkscape-font-specification:'Noto Sans';fill:#700000;fill-opacity:1;stroke-width:1;stroke-linecap:square"
       id="path2292-7" />
    <rect
       style="fill:#000000;stroke-width:1;stroke-linecap:square"
       id="rect833-7-3"
       width="285.75"
       height="635"
       x="0"
       y="1.110223e-16" />
    <path
       d="m 649.00373,543.32044 q 0,-17.26304 6.78192,-25.1547 6.7819,-7.89168 19.11265,-7.89168 7.27513,0 13.68712,3.32929 6.28869,3.206 10.23453,10.97436 3.94584,7.64506 3.94584,20.83897 v 10.11121 h 34.27947 v 11.09767 h -88.04153 z m 9.49468,0.98646 v 11.22099 h 34.7727 v -8.87814 q 0,-12.57736 -4.06914,-18.74273 -4.06916,-6.16537 -13.81044,-6.16537 -8.50821,0 -12.70066,5.42552 -4.19246,5.42553 -4.19246,17.13973 z"
       style="font-style:normal;font-variant:normal;font-weight:normal;font-stretch:normal;font-size:101.715px;line-height:90%;font-family:'Noto Sans';-inkscape-font-specification:'Noto Sans';fill:#700000;fill-opacity:1;stroke:none;stroke-width:1;stroke-linecap:square"
       id="path3978" />
    <path
       d="m 681.5089,484.44458 q 0,-7.01834 3.05145,-12.00237 3.05145,-5.08575 8.64577,-7.73034 5.49261,-2.7463 12.91781,-2.7463 h 5.39089 v 37.3294 q 9.25607,-0.20343 14.13839,-4.67889 4.7806,-4.57718 4.7806,-12.71438 0,-5.18746 -0.91543,-9.15435 -1.01715,-4.0686 -2.84802,-8.34063 h 7.83205 q 1.83087,4.17032 2.64459,8.23892 0.91544,4.0686 0.91544,9.66292 0,7.73034 -3.15317,13.73153 -3.15316,5.89947 -9.35778,9.25606 -6.30633,3.25488 -15.35896,3.25488 -8.95092,0 -15.35897,-2.94973 -6.40804,-3.05145 -9.86635,-8.44235 -3.45831,-5.49261 -3.45831,-12.71437 z m 7.32348,0.10171 q 0,6.40805 4.17031,10.1715 4.0686,3.66174 11.39208,4.37375 v -27.7682 q -6.91662,0.10172 -11.18865,3.25488 -4.37374,3.15317 -4.37374,9.96807 z"
       style="font-style:normal;font-variant:normal;font-weight:normal;font-stretch:normal;font-size:101.715px;line-height:90%;font-family:'Noto Sans';-inkscape-font-specification:'Noto Sans';fill:#700000;fill-opacity:1;stroke:none;stroke-width:1;stroke-linecap:square"
       id="path3980" />
    <path
       d="m 681.5089,425.38826 q 0,-1.52573 0.20343,-3.25488 0.10172,-1.83087 0.40686,-3.15317 l 8.23891,1.11887 q -0.30514,1.32229 -0.50857,2.94973 -0.20343,1.52573 -0.20343,2.94974 0,4.17031 2.33944,7.83205 2.23773,3.66174 6.40805,5.89947 4.0686,2.13602 9.56121,2.13602 h 29.09049 v 8.95092 h -54.51924 v -7.32348 l 9.96807,-1.01715 v -0.40686 q -4.47546,-2.64459 -7.73034,-6.81491 -3.25488,-4.17031 -3.25488,-9.86635 z"
       style="font-style:normal;font-variant:normal;font-weight:normal;font-stretch:normal;font-size:101.715px;line-height:90%;font-family:'Noto Sans';-inkscape-font-specification:'Noto Sans';fill:#700000;fill-opacity:1;stroke:none;stroke-width:1;stroke-linecap:square"
       id="path3982" />
    <path
       d="m 681.5089,347.12494 q 0,-9.25607 4.7806,-13.83324 4.67889,-4.57717 15.25725,-4.57717 h 35.49854 v 8.8492 h -35.09168 q -12.9178,0 -12.9178,11.08693 0,7.93377 4.57717,11.39208 4.57718,3.3566 13.32467,3.3566 h 30.10764 v 8.8492 h -35.09168 q -12.9178,0 -12.9178,11.18865 0,8.23892 5.08575,11.39208 5.08575,3.15317 14.64696,3.15317 h 28.27677 v 8.95092 h -54.51924 v -7.22177 l 7.42519,-1.32229 v -0.50858 q -4.27203,-2.54287 -6.30632,-6.8149 -2.13602,-4.37375 -2.13602,-9.25607 0,-12.81609 9.15435,-16.68126 v -0.50857 q -4.67889,-2.74631 -6.91662,-7.4252 -2.23773,-4.7806 -2.23773,-10.06978 z"
       style="font-style:normal;font-variant:normal;font-weight:normal;font-stretch:normal;font-size:101.715px;line-height:90%;font-family:'Noto Sans';-inkscape-font-specification:'Noto Sans';fill:#700000;fill-opacity:1;stroke:none;stroke-width:1;stroke-linecap:square"
       id="path3984" />
    <path
       d="m 662.08134,307.25273 q 0,-2.0343 1.42401,-3.56003 1.32229,-1.62744 4.27203,-1.62744 2.84802,0 4.27203,1.62744 1.42401,1.52573 1.42401,3.56003 0,2.23773 -1.42401,3.76345 -1.42401,1.52573 -4.27203,1.52573 -2.94974,0 -4.27203,-1.52573 -1.42401,-1.52572 -1.42401,-3.76345 z m 20.44471,-4.37375 h 54.51924 v 8.95092 h -54.51924 z"
       style="font-style:normal;font-variant:normal;font-weight:normal;font-stretch:normal;font-size:101.715px;line-height:90%;font-family:'Noto Sans';-inkscape-font-specification:'Noto Sans';fill:#700000;fill-opacity:1;stroke:none;stroke-width:1;stroke-linecap:square"
       id="path3986" />
    <path
       d="m 721.99147,250.08894 q 7.93377,0 12.00237,5.89947 4.0686,5.89947 4.0686,15.86754 0,5.69604 -0.91544,9.86635 -0.91543,4.0686 -2.54287,7.22177 h -8.1372 q 1.62744,-3.25488 3.05145,-7.83206 1.32229,-4.67889 1.32229,-9.45949 0,-6.81491 -2.13601,-9.86636 -2.23773,-3.05145 -5.89947,-3.05145 -2.0343,0 -3.66174,1.11887 -1.62744,1.11886 -3.25488,4.0686 -1.62744,2.84802 -3.66174,8.23891 -2.0343,5.28918 -4.0686,9.05264 -2.0343,3.76345 -4.88232,5.79775 -2.84802,2.0343 -7.32348,2.0343 -6.91662,0 -10.68008,-5.59432 -3.76345,-5.69604 -3.76345,-14.85039 0,-4.98404 1.01715,-9.25607 0.91544,-4.37374 2.64459,-8.1372 l 7.12005,3.05145 q -1.42401,3.45831 -2.44116,7.22177 -1.01715,3.76345 -1.01715,7.73034 0,5.49261 1.83087,8.44234 1.72915,2.84802 4.7806,2.84802 2.23773,0 3.86517,-1.32229 1.52573,-1.3223 3.05145,-4.37375 1.42401,-3.15316 3.45831,-8.34063 1.93259,-5.18746 3.96689,-8.8492 2.0343,-3.66174 4.98403,-5.59433 2.84802,-1.93258 7.22177,-1.93258 z"
       style="font-style:normal;font-variant:normal;font-weight:normal;font-stretch:normal;font-size:101.715px;line-height:90%;font-family:'Noto Sans';-inkscape-font-specification:'Noto Sans';fill:#700000;fill-opacity:1;stroke:none;stroke-width:1;stroke-linecap:square"
       id="path3988" />
    <path
       d="m 721.99147,201.36765 q 7.93377,0 12.00237,5.89947 4.0686,5.89947 4.0686,15.86754 0,5.69604 -0.91544,9.86636 -0.91543,4.0686 -2.54287,7.22176 h -8.1372 q 1.62744,-3.25488 3.05145,-7.83205 1.32229,-4.67889 1.32229,-9.4595 0,-6.8149 -2.13601,-9.86635 -2.23773,-3.05145 -5.89947,-3.05145 -2.0343,0 -3.66174,1.11886 -1.62744,1.11887 -3.25488,4.0686 -1.62744,2.84802 -3.66174,8.23892 -2.0343,5.28918 -4.0686,9.05263 -2.0343,3.76346 -4.88232,5.79776 -2.84802,2.0343 -7.32348,2.0343 -6.91662,0 -10.68008,-5.59433 -3.76345,-5.69604 -3.76345,-14.85039 0,-4.98403 1.01715,-9.25606 0.91544,-4.37375 2.64459,-8.1372 l 7.12005,3.05145 q -1.42401,3.45831 -2.44116,7.22176 -1.01715,3.76346 -1.01715,7.73034 0,5.49261 1.83087,8.44235 1.72915,2.84802 4.7806,2.84802 2.23773,0 3.86517,-1.3223 1.52573,-1.32229 3.05145,-4.37374 1.42401,-3.15317 3.45831,-8.34063 1.93259,-5.18747 3.96689,-8.84921 2.0343,-3.66174 4.98403,-5.59432 2.84802,-1.93259 7.22177,-1.93259 z"
       style="font-style:normal;font-variant:normal;font-weight:normal;font-stretch:normal;font-size:101.715px;line-height:90%;font-family:'Noto Sans';-inkscape-font-specification:'Noto Sans';fill:#700000;fill-opacity:1;stroke:none;stroke-width:1;stroke-linecap:square"
       id="path3990" />
    <path
       d="m 662.08134,183.5677 q 0,-2.0343 1.42401,-3.56002 1.32229,-1.62744 4.27203,-1.62744 2.84802,0 4.27203,1.62744 1.42401,1.52572 1.42401,3.56002 0,2.23773 -1.42401,3.76345 -1.42401,1.52573 -4.27203,1.52573 -2.94974,0 -4.27203,-1.52573 -1.42401,-1.52572 -1.42401,-3.76345 z m 20.44471,-4.37374 h 54.51924 v 8.95091 h -54.51924 z"
       style="font-style:normal;font-variant:normal;font-weight:normal;font-stretch:normal;font-size:101.715px;line-height:90%;font-family:'Noto Sans';-inkscape-font-specification:'Noto Sans';fill:#700000;fill-opacity:1;stroke:none;stroke-width:1;stroke-linecap:square"
       id="path3992" />
    <path
       d="m 709.68395,114.50329 q 13.5281,0 20.95329,6.91662 7.4252,6.8149 7.4252,18.51212 0,7.22177 -3.25488,12.91781 -3.3566,5.59432 -9.66293,8.8492 -6.40804,3.25488 -15.46068,3.25488 -13.52809,0 -20.85157,-6.8149 -7.32348,-6.81491 -7.32348,-18.51213 0,-7.4252 3.35659,-13.01952 3.25488,-5.69604 9.56121,-8.8492 6.20462,-3.25488 15.25725,-3.25488 z m 0,41.19457 q 9.66293,0 15.35897,-3.76346 5.59432,-3.86517 5.59432,-12.2058 0,-8.23891 -5.59432,-12.10408 -5.69604,-3.86517 -15.35897,-3.86517 -9.66292,0 -15.15553,3.86517 -5.49261,3.86517 -5.49261,12.2058 0,8.34063 5.49261,12.10408 5.49261,3.76346 15.15553,3.76346 z"
       style="font-style:normal;font-variant:normal;font-weight:normal;font-stretch:normal;font-size:101.715px;line-height:90%;font-family:'Noto Sans';-inkscape-font-specification:'Noto Sans';fill:#700000;fill-opacity:1;stroke:none;stroke-width:1;stroke-linecap:square"
       id="path3994" />
    <path
       d="m 681.5089,75.997976 q 0,-9.76464 4.7806,-14.748675 4.67889,-4.984034 15.25725,-4.984034 h 35.49854 v 8.849204 h -34.88825 q -13.12123,0 -13.12123,12.2058 0,9.052635 5.08575,12.510944 5.08575,3.45831 14.64696,3.45831 h 28.27677 v 8.950925 h -54.51924 v -7.22177 l 7.42519,-1.322295 V 93.18781 q -4.27203,-2.64459 -6.30632,-7.323479 -2.13602,-4.67889 -2.13602,-9.866355 z"
       style="font-style:normal;font-variant:normal;font-weight:normal;font-stretch:normal;font-size:101.715px;line-height:90%;font-family:'Noto Sans';-inkscape-font-specification:'Noto Sans';fill:#700000;fill-opacity:1;stroke:none;stroke-width:1;stroke-linecap:square"
       id="path3996" />
    <path
       id="path2317-6-6"
       style="fill:#ffe8f4;fill-opacity:1;fill-rule:evenodd;stroke:none;stroke-width:0.999999px;stroke-linecap:butt;stroke-linejoin:miter;stroke-opacity:1"
       d="M 119.125 -23.382812 L -69.085938 -22.027344 L -106.27734 2411.7598 C 395.35617 2369.1414 484.77651 2217.8151 1124.7129 2147.8164 C 1121.8957 2057.8505 1086.6162 1959.7692 1030.8164 1853.1328 C 1029.4616 1856.6377 1027.928 1860.0441 1026.1953 1863.3418 C 1018.2503 1878.2066 1006.4618 1889.8686 990.82812 1898.3262 C 974.93816 1906.5274 955.58907 1910.627 932.7793 1910.627 C 910.2258 1910.627 890.87478 1906.9109 874.72852 1899.4785 C 858.58227 1891.7898 846.15331 1881.1537 837.43945 1867.5703 C 828.7256 1853.7307 824.36719 1837.7141 824.36719 1819.5176 C 824.36719 1801.8336 828.2117 1786.7125 835.90039 1774.1543 C 843.58908 1761.3398 854.4822 1751.5991 868.57812 1744.9355 C 882.41777 1738.0157 898.69123 1734.5566 917.40039 1734.5566 L 937.77539 1734.5566 L 937.77539 1875.6445 C 961.09777 1875.132 978.91098 1869.2377 991.21289 1857.9609 C 1002.6011 1847.0573 1008.5992 1832.1381 1009.2207 1813.2168 C 987.37633 1774.0725 963.0729 1733.8183 936.84375 1692.4199 L 828.21289 1692.4199 L 828.21289 1664.7402 L 865.88672 1660.8965 L 865.88672 1659.3594 C 854.60997 1652.6958 844.87119 1644.1095 836.66992 1633.6016 C 828.46865 1623.0937 824.36719 1610.6647 824.36719 1596.3125 C 824.36719 1592.4681 824.62414 1588.3667 825.13672 1584.0098 C 825.39302 1579.3965 825.90497 1575.4236 826.67383 1572.0918 L 857.81445 1576.3203 C 857.0456 1579.6521 856.4032 1583.3701 855.89062 1587.4707 C 855.37805 1591.3151 855.12305 1595.0311 855.12305 1598.6191 C 855.12305 1609.127 858.07019 1618.9943 863.96484 1628.2207 C 869.60322 1637.4471 877.6757 1644.8792 888.18359 1650.5176 C 896.02468 1654.6342 904.91921 1657.1707 914.85938 1658.1387 C 634.86716 1226.1385 168.6028 673.30846 119.125 -23.382812 z M 914.85938 1658.1387 C 922.31946 1669.6488 929.65956 1681.0809 936.84375 1692.4199 L 1034.2695 1692.4199 L 1034.2695 1658.5898 L 924.32031 1658.5898 C 921.06613 1658.5898 917.91518 1658.4362 914.85938 1658.1387 z M 1009.2207 1813.2168 C 1016.7188 1826.6532 1023.9227 1839.9587 1030.8164 1853.1328 C 1035.6739 1840.5665 1038.1133 1826.6735 1038.1133 1811.4434 C 1038.1133 1797.3474 1036.9609 1785.1735 1034.6543 1774.9219 C 1032.604 1764.6703 1029.2714 1754.2911 1024.6582 1743.7832 L 995.05664 1743.7832 C 999.66986 1754.5474 1003.2574 1765.0551 1005.8203 1775.3066 C 1008.1269 1785.302 1009.2812 1796.8355 1009.2812 1809.9062 C 1009.2812 1811.0253 1009.2566 1812.1245 1009.2207 1813.2168 z M 900.10156 201.20117 C 873.44743 201.20117 854.22488 207.48088 842.43555 220.03906 C 830.38994 232.59727 824.36719 251.17743 824.36719 275.78125 C 824.36719 288.85202 827.05931 301.28294 832.44141 313.07227 C 837.56718 324.86159 845.51122 334.08842 856.27539 340.75195 L 856.27539 342.67383 L 828.21289 347.66992 L 828.21289 374.96484 L 1034.2695 374.96484 L 1034.2695 341.13477 L 927.39648 341.13477 C 903.30525 341.13477 884.8516 336.77831 872.03711 328.06445 C 859.22262 319.35063 852.81641 303.5891 852.81641 280.7793 C 852.81641 250.02453 869.34684 234.64648 902.4082 234.64648 L 1034.2695 234.64648 L 1034.2695 201.20117 L 900.10156 201.20117 z M 930.85547 421.3125 C 908.04569 421.3125 888.82509 425.41396 873.19141 433.61523 C 857.30144 441.5602 845.25596 452.70832 837.05469 467.06055 C 828.59714 481.15647 824.36719 497.56037 824.36719 516.26953 C 824.36719 545.74284 833.59401 569.0649 852.04688 586.23633 C 870.49974 603.40773 896.76894 611.99219 930.85547 611.99219 C 953.66527 611.99219 973.14477 607.89268 989.29102 599.69141 C 1005.181 591.49013 1017.3549 580.34202 1025.8125 566.24609 C 1034.0138 551.89387 1038.1133 535.61846 1038.1133 517.42188 C 1038.1133 487.94856 1028.7599 464.62648 1010.0508 447.45508 C 991.34164 430.02737 964.94202 421.3125 930.85547 421.3125 z M 930.85547 456.29688 C 955.20301 456.29687 974.55402 461.16724 988.90625 470.90625 C 1003.0022 480.64526 1010.0508 495.89289 1010.0508 516.65234 C 1010.0508 537.6681 1003.0022 553.04615 988.90625 562.78516 C 974.55402 572.26789 955.20301 577.00977 930.85547 577.00977 C 906.50795 577.00977 887.41582 572.26789 873.57617 562.78516 C 859.73652 553.30245 852.81641 538.05287 852.81641 517.03711 C 852.81641 496.02135 859.73652 480.64526 873.57617 470.90625 C 887.41582 461.16724 906.50795 456.29687 930.85547 456.29688 z M 772.46875 662.73828 C 765.03633 662.73828 759.65402 664.78804 756.32227 668.88867 C 752.73421 672.73301 750.94141 677.21795 750.94141 682.34375 C 750.94141 687.98212 752.73421 692.72403 756.32227 696.56836 C 759.65402 700.41272 765.03633 702.33398 772.46875 702.33398 C 779.64486 702.33398 785.02718 700.41272 788.61523 696.56836 C 792.20329 692.72403 793.99805 687.98212 793.99805 682.34375 C 793.99805 677.21795 792.20329 672.73301 788.61523 668.88867 C 785.02718 664.78804 779.64486 662.73828 772.46875 662.73828 z M 828.21289 665.81445 L 828.21289 699.64453 L 1034.2695 699.64453 L 1034.2695 665.81445 L 828.21289 665.81445 z M 977.37305 749.61914 C 966.35257 749.61914 957.25424 752.05431 950.07812 756.92383 C 942.64573 761.79332 936.36603 768.84193 931.24023 778.06836 C 926.11444 787.29479 921.11756 798.44288 916.24805 811.51367 C 911.12225 824.58444 906.76579 835.09211 903.17773 843.03711 C 899.3334 850.7258 895.48889 856.23661 891.64453 859.56836 C 887.5439 862.90014 882.67353 864.56641 877.03516 864.56641 C 869.34646 864.56641 863.32371 860.97689 858.9668 853.80078 C 854.35358 846.36837 852.04688 835.73223 852.04688 821.89258 C 852.04687 811.89729 853.32773 802.15852 855.89062 792.67578 C 858.45352 783.19307 861.52913 774.09471 865.11719 765.38086 L 838.20703 753.84766 C 833.85012 763.33036 830.51951 773.58304 828.21289 784.60352 C 825.64999 795.36769 824.36719 807.02775 824.36719 819.58594 C 824.36719 842.65202 829.10909 861.36262 838.5918 875.71484 C 848.07453 889.81079 861.52933 896.85742 878.95703 896.85742 C 890.23378 896.85742 899.46061 894.29572 906.63672 889.16992 C 913.81283 884.04413 919.96405 876.73859 925.08984 867.25586 C 930.21564 857.77315 935.341 846.37004 940.4668 833.04297 C 945.59259 819.4596 950.206 809.07846 954.30664 801.90234 C 958.40728 794.46995 962.50874 789.34459 966.60938 786.52539 C 970.71001 783.70622 975.32342 782.29688 980.44922 782.29688 C 989.67565 782.29687 997.10772 786.14139 1002.7461 793.83008 C 1008.1282 801.51877 1010.8184 813.94774 1010.8184 831.11914 C 1010.8184 843.16477 1009.1521 855.08372 1005.8203 866.87305 C 1002.2323 878.40607 998.38775 888.27334 994.28711 896.47461 L 1025.043 896.47461 C 1029.1436 888.52964 1032.3477 879.43128 1034.6543 869.17969 C 1036.9609 858.67179 1038.1133 846.2409 1038.1133 831.88867 C 1038.1133 806.77228 1032.9879 786.78082 1022.7363 771.91602 C 1012.4847 757.05121 997.36365 749.61914 977.37305 749.61914 z M 49.333984 882.92188 L 395.25781 882.92188 L 395.25781 989.50977 C 395.25781 1024.3929 388.79856 1054.593 375.87891 1080.1094 C 362.95922 1105.6258 343.90233 1125.3282 318.70898 1139.2168 C 293.83858 1153.1055 262.83154 1160.0488 225.6875 1160.0488 C 167.22597 1160.0488 123.13713 1144.0621 93.421875 1112.0859 C 64.029623 1080.4327 49.333984 1036.1825 49.333984 979.33594 L 49.333984 882.92188 z M 86.638672 926.52539 L 86.638672 973.52148 C 86.638672 1067.1891 132.50471 1114.0234 224.23438 1114.0234 C 270.42227 1114.0234 304.17474 1102.5574 325.49219 1079.625 C 347.13263 1057.0155 357.95312 1024.8769 357.95312 983.21094 L 357.95312 926.52539 L 86.638672 926.52539 z M 977.37305 933.76367 C 966.35257 933.76367 957.25424 936.19887 950.07812 941.06836 C 942.64573 945.93788 936.36603 952.98451 931.24023 962.21094 C 926.11444 971.43737 921.11756 982.58548 916.24805 995.65625 C 911.12225 1008.727 906.76579 1019.2367 903.17773 1027.1816 C 899.3334 1034.8703 895.48889 1040.3792 891.64453 1043.7109 C 887.5439 1047.0427 882.67353 1048.709 877.03516 1048.709 C 869.34646 1048.709 863.32371 1045.1214 858.9668 1037.9453 C 854.35358 1030.5129 852.04688 1019.8768 852.04688 1006.0371 C 852.04687 996.0418 853.32773 986.30302 855.89062 976.82031 C 858.45352 967.33758 861.52913 958.23924 865.11719 949.52539 L 838.20703 937.99219 C 833.85012 947.47492 830.51951 957.72565 828.21289 968.74609 C 825.64999 979.51026 824.36719 991.17226 824.36719 1003.7305 C 824.36719 1026.7965 829.10909 1045.5052 838.5918 1059.8574 C 848.07453 1073.9533 861.52933 1081.002 878.95703 1081.002 C 890.23378 1081.002 899.46061 1078.4383 906.63672 1073.3125 C 913.81283 1068.1867 919.96405 1060.8831 925.08984 1051.4004 C 930.21564 1041.9177 935.341 1030.5126 940.4668 1017.1855 C 945.59259 1003.6022 950.206 993.22299 954.30664 986.04688 C 958.40728 978.61446 962.50874 973.48714 966.60938 970.66797 C 970.71001 967.84877 975.32342 966.43945 980.44922 966.43945 C 989.67565 966.43945 997.10772 970.28396 1002.7461 977.97266 C 1008.1282 985.66135 1010.8184 998.09225 1010.8184 1015.2637 C 1010.8184 1027.3093 1009.1521 1039.2263 1005.8203 1051.0156 C 1002.2323 1062.5487 998.38775 1072.4159 994.28711 1080.6172 L 1025.043 1080.6172 C 1029.1436 1072.6722 1032.3477 1063.5739 1034.6543 1053.3223 C 1036.9609 1042.8144 1038.1133 1030.3835 1038.1133 1016.0312 C 1038.1133 990.91485 1032.9879 970.92535 1022.7363 956.06055 C 1012.4847 941.19574 997.36365 933.76367 977.37305 933.76367 z M 772.46875 1130.209 C 765.03633 1130.209 759.65402 1132.2587 756.32227 1136.3594 C 752.73421 1140.2037 750.94141 1144.6887 750.94141 1149.8145 C 750.94141 1155.4528 752.73421 1160.1947 756.32227 1164.0391 C 759.65402 1167.8834 765.03633 1169.8066 772.46875 1169.8066 C 779.64486 1169.8066 785.02718 1167.8834 788.61523 1164.0391 C 792.20329 1160.1947 793.99805 1155.4528 793.99805 1149.8145 C 793.99805 1144.6887 792.20329 1140.2037 788.61523 1136.3594 C 785.02718 1132.2587 779.64486 1130.209 772.46875 1130.209 z M 828.21289 1133.2852 L 828.21289 1167.1152 L 1034.2695 1167.1152 L 1034.2695 1133.2852 L 828.21289 1133.2852 z M 160.81641 1209.0332 C 185.59028 1209.0332 206.84424 1213.1152 224.58008 1221.2793 C 242.31591 1229.7249 255.97124 1241.4094 265.54297 1256.3301 C 275.1147 1271.5322 279.90039 1289.1272 279.90039 1309.1152 C 279.90039 1328.5402 275.67613 1345.1488 267.23047 1358.9434 C 258.78484 1373.0194 246.82156 1383.7176 231.33789 1391.0371 C 216.13575 1398.6382 198.25809 1402.4395 177.70703 1402.4395 L 155.32617 1402.4395 L 155.32617 1247.4609 C 129.70773 1248.024 110.14195 1254.4998 96.628906 1266.8867 C 83.397435 1279.5552 76.78125 1297.1502 76.78125 1319.6719 C 76.78125 1334.0295 78.048362 1346.6984 80.582031 1357.6777 C 83.39725 1368.9386 87.338861 1380.4808 92.40625 1392.3047 L 59.890625 1392.3047 C 54.823261 1380.7623 51.164279 1369.3605 48.912109 1358.0996 C 46.378415 1346.8388 45.111328 1333.4661 45.111328 1317.9824 C 45.111328 1296.5868 49.474016 1277.5844 58.201172 1260.9746 C 66.928328 1244.6464 79.877969 1231.8371 97.050781 1222.5469 C 114.50509 1213.5382 135.76101 1209.0332 160.81641 1209.0332 z M 900.10156 1230.9316 C 873.44743 1230.9316 854.22488 1236.6974 842.43555 1248.2305 C 830.38994 1259.7635 824.36719 1277.1913 824.36719 1300.5137 C 824.36719 1313.8407 827.1878 1326.5267 832.82617 1338.5723 C 838.46455 1350.3616 847.17747 1359.7169 858.9668 1366.6367 L 858.9668 1368.5586 C 835.90072 1378.2976 824.36719 1399.313 824.36719 1431.6055 C 824.36719 1443.9074 827.05931 1455.5694 832.44141 1466.5898 C 837.56718 1477.354 845.51122 1485.9385 856.27539 1492.3457 L 856.27539 1494.2676 L 828.21289 1499.2656 L 828.21289 1526.5605 L 1034.2695 1526.5605 L 1034.2695 1492.7305 L 927.39648 1492.7305 C 903.30525 1492.7305 884.8516 1488.7575 872.03711 1480.8125 C 859.22262 1472.8675 852.81641 1458.5153 852.81641 1437.7559 C 852.81641 1409.564 869.08988 1395.4688 901.63867 1395.4688 L 1034.2695 1395.4688 L 1034.2695 1362.0234 L 920.47656 1362.0234 C 898.43564 1362.0234 881.64829 1357.7935 870.11523 1349.3359 C 858.58221 1340.6221 852.81641 1326.2699 852.81641 1306.2793 C 852.81641 1278.3437 869.08988 1264.377 901.63867 1264.377 L 1034.2695 1264.377 L 1034.2695 1230.9316 L 900.10156 1230.9316 z M 184.88672 1248.3066 L 184.88672 1363.5898 C 204.03015 1363.3083 219.51399 1358.8033 231.33789 1350.0762 C 243.44331 1341.349 249.49609 1327.5534 249.49609 1308.6914 C 249.49609 1290.9556 243.72404 1276.8811 232.18164 1266.4648 C 220.92082 1256.3301 205.15625 1250.2773 184.88672 1248.3066 z M 49.333984 1459.8691 L 275.67773 1459.8691 L 275.67773 1489.8516 L 244.84961 1495.3398 L 244.84961 1497.4512 C 256.67351 1504.7707 265.40081 1514.9055 271.03125 1527.8555 C 276.94319 1540.8054 279.90039 1554.4608 279.90039 1568.8184 C 279.90039 1595.8444 273.28423 1616.2543 260.05273 1630.0488 C 247.10274 1643.8434 225.98912 1650.7402 196.71094 1650.7402 L 49.333984 1650.7402 L 49.333984 1614.002 L 194.17578 1614.002 C 230.49203 1614.002 248.65039 1597.1107 248.65039 1563.3281 C 248.65039 1538.2727 241.61315 1520.9584 227.53711 1511.3867 C 213.46104 1501.815 193.19153 1497.0293 166.72852 1497.0293 L 49.333984 1497.0293 L 49.333984 1459.8691 z M 336.9082 1717.8828 C 345.07231 1717.8828 350.98279 1719.994 354.64258 1724.2168 C 358.58387 1728.4396 360.55469 1733.6483 360.55469 1739.8418 C 360.55469 1745.4722 358.58387 1750.3983 354.64258 1754.6211 C 350.98279 1759.1254 345.07231 1761.377 336.9082 1761.377 C 329.0256 1761.377 323.11317 1759.1254 319.17188 1754.6211 C 315.23058 1750.3983 313.25977 1745.4722 313.25977 1739.8418 C 313.25977 1733.6483 315.23058 1728.4396 319.17188 1724.2168 C 323.11317 1719.994 329.0256 1717.8828 336.9082 1717.8828 z M 49.333984 1720.8379 L 275.67773 1720.8379 L 275.67773 1758 L 49.333984 1758 L 49.333984 1720.8379 z M 910.86523 1769.9238 C 893.43753 1770.1801 879.3423 1774.2816 868.57812 1782.2266 C 857.55768 1790.1716 852.04687 1802.729 852.04688 1819.9004 C 852.04688 1836.0467 857.30073 1848.861 867.80859 1858.3438 C 878.06018 1867.5702 892.41237 1873.081 910.86523 1874.875 L 910.86523 1769.9238 z M 160.81641 1817.1191 C 185.59028 1817.1191 206.84424 1821.2011 224.58008 1829.3652 C 242.31591 1837.8109 255.97124 1849.4934 265.54297 1864.4141 C 275.1147 1879.6162 279.90039 1897.2112 279.90039 1917.1992 C 279.90039 1936.6242 275.67613 1953.2348 267.23047 1967.0293 C 258.78484 1981.1054 246.82156 1991.8016 231.33789 1999.1211 C 216.13575 2006.7222 198.25809 2010.5234 177.70703 2010.5234 L 155.32617 2010.5234 L 155.32617 1855.5469 C 129.70773 1856.1099 110.14195 1862.5838 96.628906 1874.9707 C 83.397435 1887.6392 76.78125 1905.2342 76.78125 1927.7559 C 76.78125 1942.1134 78.048362 1954.7824 80.582031 1965.7617 C 83.39725 1977.0226 87.338861 1988.5648 92.40625 2000.3887 L 59.890625 2000.3887 C 54.823261 1988.8463 51.164279 1977.4444 48.912109 1966.1836 C 46.378415 1954.9227 45.111328 1941.55 45.111328 1926.0664 C 45.111328 1904.6708 49.474016 1885.6684 58.201172 1869.0586 C 66.928328 1852.7304 79.877969 1839.9211 97.050781 1830.6309 C 114.50509 1821.6222 135.76101 1817.1191 160.81641 1817.1191 z M 184.88672 1856.3906 L 184.88672 1971.6738 C 204.03015 1971.3923 219.51399 1966.8873 231.33789 1958.1602 C 243.44331 1949.433 249.49609 1935.6393 249.49609 1916.7773 C 249.49609 1899.0415 243.72404 1884.9651 232.18164 1874.5488 C 220.92082 1864.4141 205.15625 1858.3613 184.88672 1856.3906 z M 799.38281 1917.1406 C 817.71385 1917.1406 834.95709 1921.3339 851.11328 1929.7227 C 866.9588 1937.8008 879.85265 1951.6274 889.79492 1971.2012 C 899.7372 1990.4643 904.70898 2016.7184 904.70898 2049.9629 L 904.70898 2088.1777 L 1034.2695 2088.1777 L 1034.2695 2130.1211 L 701.51367 2130.1211 L 701.51367 2042.0391 C 701.51367 1998.5416 710.05818 1966.8513 727.14648 1946.9668 C 744.23474 1927.0822 768.31321 1917.1406 799.38281 1917.1406 z M 801.24805 1960.4824 C 779.81004 1960.4824 763.80779 1967.3177 753.24414 1980.9883 C 742.68046 1994.6589 737.39844 2016.2515 737.39844 2045.7676 L 737.39844 2088.1777 L 868.82422 2088.1777 L 868.82422 2054.623 C 868.82422 2022.9321 863.69631 1999.3199 853.44336 1983.7852 C 843.19036 1968.2504 825.793 1960.4824 801.24805 1960.4824 z M 162.08203 2055.2852 C 200.93197 2055.2852 230.21146 2063.7298 249.91797 2080.6211 C 269.90598 2097.7939 279.90039 2120.4572 279.90039 2148.6094 C 279.90039 2166.0637 276.66251 2180.2804 270.1875 2191.2598 C 263.71251 2202.5206 255.82927 2211.671 246.53906 2218.709 L 246.53906 2221.2422 C 250.19885 2220.9606 255.5479 2220.3973 262.58594 2219.5527 C 269.90547 2218.9897 275.67755 2218.709 279.90039 2218.709 L 370.26758 2218.709 L 370.26758 2255.8691 L 49.333984 2255.8691 L 49.333984 2225.8867 L 79.738281 2220.3965 L 79.738281 2218.709 C 70.166552 2211.9525 62.002604 2202.9425 55.246094 2191.6816 C 48.489584 2180.4208 45.111328 2165.9233 45.111328 2148.1875 C 45.111328 2120.0354 54.823064 2097.5124 74.248047 2080.6211 C 93.954529 2063.7298 123.23212 2055.2852 162.08203 2055.2852 z M 161.23828 2093.7129 C 134.21224 2093.7129 113.23898 2098.639 98.318359 2108.4922 C 83.397692 2118.627 75.9375 2133.8301 75.9375 2154.0996 C 75.9375 2178.0289 82.413259 2194.7779 95.363281 2204.3496 C 108.59475 2214.2029 128.44128 2219.1309 154.9043 2219.1309 L 161.66016 2219.1309 C 189.81227 2219.1309 211.34889 2214.4855 226.26953 2205.1953 C 241.47167 2195.9051 249.07227 2178.7312 249.07227 2153.6758 C 249.07227 2133.6877 241.05062 2118.627 225.00391 2108.4922 C 209.23872 2098.639 187.9828 2093.7129 161.23828 2093.7129 z "
       transform="scale(0.26458333)" />
  </g>
</svg>
