<?xml version="1.0" encoding="UTF-8" standalone="no"?>
<svg
   xmlns:dc="http://purl.org/dc/elements/1.1/"
   xmlns:cc="http://creativecommons.org/ns#"
   xmlns:rdf="http://www.w3.org/1999/02/22-rdf-syntax-ns#"
   xmlns:svg="http://www.w3.org/2000/svg"
   xmlns="http://www.w3.org/2000/svg"
   xmlns:sodipodi="http://sodipodi.sourceforge.net/DTD/sodipodi-0.dtd"
   xmlns:inkscape="http://www.inkscape.org/namespaces/inkscape"
   width="1080"
   height="2400"
   viewBox="0 0 285.74999 635.00002"
   version="1.1"
   id="svg8"
   inkscape:version="1.0.2 (e86c870879, 2021-01-15)"
   sodipodi:docname="pixel6_uncoughtexception.svg"
   inkscape:export-filename="/mnt/tmpfs/pixel6_uncaughtexception.png"
   inkscape:export-xdpi="96"
   inkscape:export-ydpi="96">
  <defs
     id="defs2" />
  <sodipodi:namedview
     id="base"
     pagecolor="#ffffff"
     bordercolor="#666666"
     borderopacity="1.0"
     inkscape:pageopacity="0.0"
     inkscape:pageshadow="2"
     inkscape:zoom="0.49497475"
     inkscape:cx="716.68246"
     inkscape:cy="994.60869"
     inkscape:document-units="mm"
     inkscape:current-layer="layer1"
     inkscape:document-rotation="0"
     showgrid="false"
     units="px" />
  <metadata
     id="metadata5">
    <rdf:RDF>
      <cc:Work
         rdf:about="">
        <dc:format>image/svg+xml</dc:format>
        <dc:type
           rdf:resource="http://purl.org/dc/dcmitype/StillImage" />
        <dc:title></dc:title>
      </cc:Work>
    </rdf:RDF>
  </metadata>
  <g
     inkscape:label="Layer 1"
     inkscape:groupmode="layer"
     id="layer1">
    <rect
       style="fill:#000000;stroke-width:1;stroke-linecap:square"
       id="rect833-2-4-9"
       width="285.75"
       height="635"
       x="0"
       y="0" />
    <path
       style="fill:#ffe8f4;fill-opacity:1;fill-rule:evenodd;stroke:none;stroke-width:0.264583px;stroke-linecap:butt;stroke-linejoin:miter;stroke-opacity:1"
       d="M -19.566346,495.41399 C 232.65881,394.34623 158.4861,128.31453 302.81801,56.912547 l -2.54009,456.704183 c -82.04098,33.61976 -184.8668,-0.30783 -323.478026,33.70071 z"
       id="path2259-7-5-9-8"
       sodipodi:nodetypes="ccccc" />
    <path
       d="M 97.815475,485.11688 H 81.784838 v -29.19869 h 16.030637 v 2.12651 H 84.156711 v 10.67347 h 12.881777 v 2.1265 H 84.156711 v 12.14569 h 13.658764 z"
       style="font-style:normal;font-variant:normal;font-weight:300;font-stretch:normal;font-size:44.8951px;line-height:90%;font-family:'Noto Sans';-inkscape-font-specification:'Noto Sans Light';fill:#000000;fill-opacity:1;stroke-width:0.999996;stroke-linecap:square;stroke-miterlimit:4;stroke-dasharray:none"
       id="path2205-3-8-0-0-0" />
    <path
       d="m 110.11929,472.57915 -8.49626,-11.89475 h 3.0311 l 7.07255,10.10366 7.02662,-10.10366 h 2.98517 l -8.45032,11.89475 8.9555,12.53772 h -3.0311 l -7.48587,-10.74661 -7.53181,10.74661 h -2.98517 z"
       style="font-style:normal;font-variant:normal;font-weight:300;font-stretch:normal;font-size:44.8951px;line-height:90%;font-family:'Noto Sans';-inkscape-font-specification:'Noto Sans Light';fill:#000000;fill-opacity:1;stroke-width:0.999996;stroke-linecap:square;stroke-miterlimit:4;stroke-dasharray:none"
       id="path2207-7-4-4-9-5" />
    <path
       d="m 133.80667,485.5258 q -4.78466,0 -7.40191,-2.94442 -2.57635,-2.94437 -2.57635,-8.21978 0,-3.6805 1.30863,-6.21596 1.30862,-2.53544 3.63959,-3.84408 2.37189,-1.34953 5.52076,-1.34953 1.55399,0 2.9444,0.28629 1.39041,0.28625 2.45367,0.777 l -0.65431,2.00382 q -1.10415,-0.44983 -2.37187,-0.69521 -1.26773,-0.28627 -2.41278,-0.28627 -3.88498,0 -5.97059,2.49458 -2.04474,2.49457 -2.04474,6.78848 0,4.08944 1.84025,6.62491 1.84027,2.49455 5.72525,2.49455 1.59488,0 3.02619,-0.32715 1.43131,-0.32715 2.57634,-0.81787 v 2.08561 q -1.06325,0.53163 -2.45366,0.81789 -1.34952,0.32714 -3.14887,0.32714 z"
       style="font-style:normal;font-variant:normal;font-weight:300;font-stretch:normal;font-size:44.8951px;line-height:90%;font-family:'Noto Sans';-inkscape-font-specification:'Noto Sans Light';fill:#000000;fill-opacity:1;stroke-width:0.999996;stroke-linecap:square;stroke-miterlimit:4;stroke-dasharray:none"
       id="path2209-5-5-8-1-6" />
    <path
       d="m 152.50079,462.95203 q 2.78083,0 4.62107,1.30865 1.88116,1.26771 2.82174,3.51692 0.98146,2.24921 0.98146,5.1527 v 1.5949 h -15.5399 q 0,4.3348 2.00382,6.6658 2.04474,2.29009 5.80702,2.29009 2.00383,0 3.51692,-0.32715 1.51309,-0.36806 3.31247,-1.14506 v 2.12653 q -1.63579,0.73609 -3.23068,1.06325 -1.59488,0.32714 -3.68051,0.32714 -4.90733,0 -7.52458,-2.98529 -2.61724,-2.9853 -2.61724,-8.13801 0,-3.31245 1.10413,-5.8888 1.14506,-2.57634 3.27157,-4.04856 2.12653,-1.51311 5.15271,-1.51311 z m -0.0409,1.96294 q -2.98529,0 -4.86646,2.00383 -1.84024,2.00384 -2.12652,5.68435 h 13.04535 q 0,-3.43514 -1.5131,-5.56167 -1.47219,-2.12651 -4.53927,-2.12651 z"
       style="font-style:normal;font-variant:normal;font-weight:300;font-stretch:normal;font-size:44.8951px;line-height:90%;font-family:'Noto Sans';-inkscape-font-specification:'Noto Sans Light';fill:#000000;fill-opacity:1;stroke-width:0.999996;stroke-linecap:square;stroke-miterlimit:4;stroke-dasharray:none"
       id="path2211-9-0-7-7-6" />
    <path
       d="m 175.34933,462.95203 q 4.17126,0 6.50223,2.82174 2.33098,2.82173 2.33098,8.34247 0,5.52077 -2.45365,8.46514 -2.41279,2.94442 -6.62493,2.94442 -2.86261,0 -4.62108,-1.22682 -1.75846,-1.22685 -2.57635,-2.9444 h -0.16357 q 0.0817,1.02235 0.12268,2.24919 0.0409,1.18594 0.0409,2.20831 v 8.95589 h -2.33099 v -31.40698 h 1.92205 l 0.28627,4.04856 h 0.12267 q 0.81789,-1.75847 2.61725,-3.10799 1.79936,-1.34953 4.82556,-1.34953 z m -0.32715,2.00384 q -3.63962,0 -5.35719,2.2901 -1.71756,2.2901 -1.75846,6.58401 v 0.40895 q 0,4.66197 1.67668,6.99295 1.71758,2.2901 5.27538,2.2901 3.35336,0 5.11182,-2.49455 1.79937,-2.53548 1.79937,-6.95207 0,-4.37572 -1.71759,-6.7476 -1.67666,-2.37189 -5.03001,-2.37189 z"
       style="font-style:normal;font-variant:normal;font-weight:300;font-stretch:normal;font-size:44.8951px;line-height:90%;font-family:'Noto Sans';-inkscape-font-specification:'Noto Sans Light';fill:#000000;fill-opacity:1;stroke-width:0.999996;stroke-linecap:square;stroke-miterlimit:4;stroke-dasharray:none"
       id="path2213-2-3-1-7-4" />
    <path
       d="m 195.37498,483.52198 q 0.89968,0 1.71756,-0.12268 0.8179,-0.12269 1.43132,-0.36804 v 1.88114 q -0.61342,0.24536 -1.51308,0.40894 -0.8997,0.20446 -1.92205,0.20446 -2.73995,0 -4.21214,-1.51309 -1.47221,-1.5131 -1.47221,-4.94824 v -13.82232 h -3.23066 v -1.30864 l 3.23066,-0.77698 0.81789,-4.98914 h 1.51309 v 5.1936 h 6.6658 v 1.88116 h -6.6658 v 13.69966 q 0,4.58017 3.63962,4.58017 z"
       style="font-style:normal;font-variant:normal;font-weight:300;font-stretch:normal;font-size:44.8951px;line-height:90%;font-family:'Noto Sans';-inkscape-font-specification:'Noto Sans Light';fill:#000000;fill-opacity:1;stroke-width:0.999996;stroke-linecap:square;stroke-miterlimit:4;stroke-dasharray:none"
       id="path2215-2-6-7-1-0" />
    <path
       d="m 206.11945,463.36099 v 21.75589 h -2.33097 v -21.75589 z"
       style="font-style:normal;font-variant:normal;font-weight:300;font-stretch:normal;font-size:44.8951px;line-height:90%;font-family:'Noto Sans';-inkscape-font-specification:'Noto Sans Light';fill:#000000;fill-opacity:1;stroke-width:0.999996;stroke-linecap:square;stroke-miterlimit:4;stroke-dasharray:none"
       id="path2217-8-1-2-1-0"
       sodipodi:nodetypes="ccccc" />
    <path
       d="m 230.82534,474.19804 q 0,3.43515 -1.14504,5.97059 -1.10415,2.53545 -3.31245,3.96678 -2.16741,1.39039 -5.31627,1.39039 -3.0262,0 -5.19363,-1.39039 -2.16741,-1.39043 -3.35334,-3.92587 -1.14505,-2.57635 -1.14505,-6.0115 0,-5.2754 2.61727,-8.26068 2.61723,-2.98533 7.23832,-2.98533 3.10797,0 5.23449,1.43132 2.1674,1.39042 3.27155,3.92587 1.10415,2.53545 1.10415,5.88882 z m -17.053,0 q 0,4.21212 1.75846,6.78847 1.79936,2.53547 5.56166,2.53547 3.80319,0 5.56165,-2.57635 1.75846,-2.57635 1.75846,-6.74759 0,-2.69905 -0.73611,-4.78466 -0.7361,-2.08562 -2.33097,-3.27156 -1.59489,-1.18595 -4.17124,-1.18595 -3.6805,0 -5.56167,2.45368 -1.84024,2.45368 -1.84024,6.78849 z"
       style="font-style:normal;font-variant:normal;font-weight:300;font-stretch:normal;font-size:44.8951px;line-height:90%;font-family:'Noto Sans';-inkscape-font-specification:'Noto Sans Light';fill:#000000;fill-opacity:1;stroke-width:0.999996;stroke-linecap:square;stroke-miterlimit:4;stroke-dasharray:none"
       id="path2219-9-0-7-5-4" />
    <path
       d="m 244.49232,462.95203 q 3.72141,0 5.68435,1.92205 1.96294,1.92205 1.96294,6.01151 v 14.23129 h -2.29011 v -14.06773 q 0,-3.10796 -1.43131,-4.58018 -1.4313,-1.5131 -4.17123,-1.5131 -7.15652,0 -7.15652,8.30158 v 11.85943 h -2.331 v -21.75589 h 1.88116 l 0.32716,3.76228 h 0.16355 q 0.85878,-1.79934 2.73994,-2.98528 1.88115,-1.18596 4.62107,-1.18596 z"
       style="font-style:normal;font-variant:normal;font-weight:300;font-stretch:normal;font-size:44.8951px;line-height:90%;font-family:'Noto Sans';-inkscape-font-specification:'Noto Sans Light';fill:#000000;fill-opacity:1;stroke-width:0.999996;stroke-linecap:square;stroke-miterlimit:4;stroke-dasharray:none"
       id="path2221-7-6-2-9-6" />
    <path
       d="m 212.60549,400.08966 q 0,9.05936 -3.46087,14.96319 -3.35909,5.90385 -9.36472,8.85576 -6.00563,2.85015 -13.9453,2.85015 -12.62202,0 -19.54377,-6.81997 -6.92174,-6.81995 -6.92174,-20.05272 v -46.82361 h 2.64654 v 46.62004 q 0,12.21485 6.20923,18.42405 6.31101,6.10744 17.71153,6.10744 10.89158,0 17.40618,-5.80203 6.61637,-5.90386 6.61637,-17.50797 v -47.84153 h 2.64655 z"
       style="font-style:normal;font-variant:normal;font-weight:100;font-stretch:normal;font-size:97.6786px;line-height:90%;font-family:'Noto Sans';-inkscape-font-specification:'Noto Sans Thin';fill:#000000;fill-opacity:1;stroke-width:0.999996;stroke-linecap:square;stroke-miterlimit:4;stroke-dasharray:none"
       id="path2224-3-3-2-7-2" />
    <path
       d="m 236.3988,373.20719 q 6.99747,0 10.82168,3.8242 3.8242,3.82421 3.8242,11.79809 v 28.15268 h -2.11551 v -28.07131 q 0,-7.16024 -3.33602,-10.41487 -3.25464,-3.25465 -9.19435,-3.25465 -6.99752,0 -11.39127,4.23104 -4.31242,4.14966 -4.31242,12.9372 v 24.57259 h -2.11552 v -42.96132 h 1.7087 l 0.32545,9.03166 h 0.16274 q 0.9764,-2.52237 2.84783,-4.71924 1.95277,-2.27828 5.04468,-3.66149 3.17327,-1.46458 7.72981,-1.46458 z"
       style="font-style:normal;font-variant:normal;font-weight:100;font-stretch:normal;font-size:97.6786px;line-height:90%;font-family:'Noto Sans';-inkscape-font-specification:'Noto Sans Thin';fill:#000000;fill-opacity:1;stroke-width:0.999987;stroke-linecap:square;stroke-miterlimit:4;stroke-dasharray:none"
       id="path2226-6-2-6-7-6" />
    <path
       d="m 138.50554,423.70177 q -3.75688,0 -6.44647,1.70769 -2.6896,1.66497 -4.14113,4.6961 -1.40883,2.98843 -1.40883,6.95878 0,4.09842 1.28077,7.17224 1.28075,3.03112 3.84227,4.6961 2.60421,1.66498 6.44648,1.66498 2.21998,0 4.05574,-0.34153 1.87844,-0.34154 3.54341,-0.89653 v 2.17729 q -1.57959,0.59769 -3.45804,0.93923 -1.87844,0.34153 -4.39726,0.34153 -4.61072,0 -7.72726,-1.96383 -3.0738,-1.96383 -4.65339,-5.50724 -1.53691,-3.54344 -1.53691,-8.28224 0,-4.52534 1.70769,-8.02606 1.75034,-3.54345 4.99492,-5.54998 3.28729,-2.00652 7.9407,-2.00652 4.43996,0 7.9834,1.66502 l -0.98192,2.17726 q -3.28727,-1.62229 -7.04417,-1.62229 z"
       style="font-style:normal;font-variant:normal;font-weight:300;font-stretch:normal;font-size:43.6532px;line-height:90%;font-family:'Noto Sans';-inkscape-font-specification:'Noto Sans Light';fill:#000000;fill-opacity:1;stroke-width:0.999996;stroke-linecap:square;stroke-miterlimit:4;stroke-dasharray:none"
       id="path2229-1-0-1-6-7" />
    <path
       d="m 189.83231,431.26596 v 21.15405 h -1.82913 l -0.35786,-3.61847 h -0.1193 q -0.87479,1.74959 -2.7039,2.90272 -1.78935,1.11338 -4.49323,1.11338 -7.43574,0 -7.43574,-7.71407 v -13.83761 h 2.2665 v 13.6388 q 0,3.06178 1.35196,4.53299 1.39172,1.43149 4.09563,1.43149 6.95855,0 6.95855,-8.07195 v -11.53133 z"
       style="font-style:normal;font-variant:normal;font-weight:300;font-stretch:normal;font-size:43.6532px;line-height:90%;font-family:'Noto Sans';-inkscape-font-specification:'Noto Sans Light';fill:#000000;fill-opacity:1;stroke-width:0.999996;stroke-linecap:square;stroke-miterlimit:4;stroke-dasharray:none"
       id="path2233-9-1-6-3-5" />
    <path
       d="m 204.62421,430.86832 q 2.4653,0 4.0956,0.99408 1.67004,0.9543 2.66412,2.62436 h 0.15907 l 0.3181,-3.2208 h 1.82912 v 21.83003 q 0,4.17515 -2.14722,6.52116 -2.1472,2.34603 -6.95859,2.34603 -2.38578,0 -4.25465,-0.39763 -1.82913,-0.35787 -3.30035,-1.03385 v -2.18698 q 1.47122,0.75551 3.41964,1.19292 1.9484,0.47715 4.2149,0.47715 3.45941,0 5.12945,-1.82911 1.67008,-1.82911 1.67008,-4.97041 v -1.23267 q 0,-0.83503 0,-1.67004 0.0397,-0.87481 0.0795,-1.6303 h -0.11928 q -1.82911,4.13538 -7.07787,4.13538 -4.09562,0 -6.40188,-2.78343 -2.30627,-2.78343 -2.30627,-8.03219 0,-5.12945 2.30627,-8.1117 2.30626,-3.022 6.68024,-3.022 z m 0.23857,1.94838 q -3.45941,0 -5.16924,2.42557 -1.70983,2.42556 -1.70983,6.79951 0,4.29444 1.70983,6.56095 1.70983,2.26651 4.93067,2.26651 2.62436,0 4.0956,-1.03384 1.511,-1.07362 2.10745,-2.94247 0.63622,-1.8689 0.63622,-4.2547 v -1.3917 q 0,-4.0161 -1.51101,-6.20308 -1.47125,-2.22675 -5.08969,-2.22675 z"
       style="font-style:normal;font-variant:normal;font-weight:300;font-stretch:normal;font-size:43.6532px;line-height:90%;font-family:'Noto Sans';-inkscape-font-specification:'Noto Sans Light';fill:#000000;fill-opacity:1;stroke-width:0.999996;stroke-linecap:square;stroke-miterlimit:4;stroke-dasharray:none"
       id="path2235-3-5-1-6-6" />
    <path
       d="m 220.44321,431.8624 q 0,0.83502 -0.0397,1.59052 -0.0397,0.75552 -0.11929,1.47125 h 0.15906 q 0.83504,-1.7496 2.62439,-2.90272 1.82909,-1.15313 4.53299,-1.15313 3.65823,0 5.56686,1.86887 1.90864,1.86886 1.90864,5.84518 v 13.83764 h -2.22673 v -13.67856 q 0,-3.02202 -1.39174,-4.45349 -1.3917,-1.47126 -4.05584,-1.47126 -6.95857,0 -6.95857,8.07196 v 11.53135 h -2.2665 v -30.22009 h 2.26651 z"
       style="font-style:normal;font-variant:normal;font-weight:300;font-stretch:normal;font-size:43.6532px;line-height:90%;font-family:'Noto Sans';-inkscape-font-specification:'Noto Sans Light';fill:#000000;fill-opacity:1;stroke-width:0.999996;stroke-linecap:square;stroke-miterlimit:4;stroke-dasharray:none"
       id="path2237-1-5-5-5-9" />
    <path
       d="m 247.69786,450.86924 q 0.87481,0 1.67006,-0.1193 0.79527,-0.11929 1.39172,-0.35786 v 1.82911 q -0.59645,0.23859 -1.47125,0.39763 -0.8748,0.19882 -1.86886,0.19882 -2.66413,0 -4.09563,-1.47124 -1.43147,-1.47125 -1.43147,-4.81136 v -13.43998 h -3.1413 v -1.27244 l 3.1413,-0.75549 0.79526,-4.85111 h 1.47125 v 5.04994 h 6.48141 v 1.8291 h -6.48141 v 13.3207 q 0,4.45348 3.53892,4.45348 z"
       style="font-style:normal;font-variant:normal;font-weight:300;font-stretch:normal;font-size:43.6532px;line-height:90%;font-family:'Noto Sans';-inkscape-font-specification:'Noto Sans Light';fill:#000000;fill-opacity:1;stroke-width:0.999996;stroke-linecap:square;stroke-miterlimit:4;stroke-dasharray:none"
       id="path2239-9-4-9-6-8" />
    <text
       xml:space="preserve"
       style="font-style:normal;font-variant:normal;font-weight:300;font-stretch:normal;font-size:41.4129px;line-height:90%;font-family:'Noto Sans';-inkscape-font-specification:'Noto Sans Light';fill:#000000;fill-opacity:1;stroke:none;stroke-width:0.999996;stroke-linecap:square;stroke-miterlimit:4;stroke-dasharray:none"
       x="148.30072"
       y="452.97031"
       id="text3110-7"><tspan
         sodipodi:role="line"
         id="tspan3108-2"
         x="148.30072"
         y="452.97031"
         style="fill:#000000;fill-opacity:1;stroke-width:0.999996">a</tspan></text>
  </g>
</svg>
